<?xml version="1.0" encoding="UTF-8" standalone="no"?>
<svg
   viewBox="0 0 102.00001 102"
   fill="currentColor"
   width="96"
   height="96.000008"
   version="1.1"
   id="svg1"
   xmlns:xlink="http://www.w3.org/1999/xlink"
   xmlns="http://www.w3.org/2000/svg"
   xmlns:svg="http://www.w3.org/2000/svg">
  <defs
     id="defs1">
    <linearGradient
       id="swatch9">
      <stop
         style="stop-color:#ff6201;stop-opacity:1;"
         offset="0"
         id="stop9" />
    </linearGradient>
    <linearGradient
       id="swatch8">
      <stop
         style="stop-color:#00ff53;stop-opacity:0;"
         offset="0"
         id="stop8" />
    </linearGradient>
    <linearGradient
       xlink:href="#swatch8"
       id="linearGradient8"
       x1="0.21059097"
       y1="47.698853"
       x2="36.221645"
       y2="47.698853"
       gradientUnits="userSpaceOnUse"
       gradientTransform="matrix(0.55085818,0,0,1.1241212,37.860846,7.4579219)" />
    <linearGradient
       xlink:href="#swatch9"
       id="linearGradient10"
       gradientUnits="userSpaceOnUse"
       gradientTransform="matrix(0.55085818,0,0,1.1241212,37.860846,7.4579219)"
       x1="0.21059097"
       y1="47.698853"
       x2="36.221645"
       y2="47.698853" />
    <linearGradient
       xlink:href="#swatch9"
       id="linearGradient12"
       gradientUnits="userSpaceOnUse"
       gradientTransform="matrix(0.55221988,0,0,1.1240986,80.076004,7.4590439)"
       x1="0.21059097"
       y1="47.698853"
       x2="36.221645"
       y2="47.698853" />
    <linearGradient
       xlink:href="#swatch8"
       id="linearGradient13"
       gradientUnits="userSpaceOnUse"
       gradientTransform="matrix(0.55221988,0,0,1.1240986,80.076004,7.4590439)"
       x1="0.21059097"
       y1="47.698853"
       x2="36.221645"
       y2="47.698853" />
  </defs>
  <rect
     style="fill:#000000;fill-opacity:1;fill-rule:evenodd;stroke-width:1.0784"
     id="rect9"
     width="102"
     height="102"
     x="1.1187204e-06"
     y="-6.8785641e-07"
     ry="26.318758" />
  <g
     id="g14"
     transform="translate(-20.406187,-12.551465)"
     style="stroke-width:0.999812;stroke-dasharray:none">
    <g
       id="g13"
       style="stroke-width:0.999812;stroke-dasharray:none">
      <rect
         style="fill:url(#linearGradient10);fill-rule:evenodd;stroke:url(#linearGradient8);stroke-width:0.999812;stroke-dasharray:none"
         id="rect8"
         width="24.582047"
         height="50.163895"
         x="37.97686"
         y="38.469517" />
      <rect
         style="fill:url(#linearGradient12);fill-rule:evenodd;stroke:url(#linearGradient13);stroke-width:0.999812;stroke-dasharray:none"
         id="rect10"
         width="24.642811"
         height="50.162876"
         x="80.192307"
         y="38.470013" />
    </g>
    <rect
       style="fill:#000000;fill-opacity:1;fill-rule:evenodd;stroke-width:0.999812;stroke-dasharray:none"
       id="rect13"
       width="59.5"
       height="42.096794"
       x="41.656189"
       y="42.503067" />
  </g>
  <g
     id="g15"
     transform="translate(-20.378402,-12.529865)">
    <path
       d="M 81.971953,49.419039 50.32257,17.769656 c -0.923456,0.08395 -1.846913,0.251852 -2.77037,0.503704 l 34.000003,34 c 0.1679,-1.007408 0.3358,-1.930865 0.41975,-2.854321 z"
       fill="#000000"
       stroke="#000000"
       id="path1"
       style="fill:#ff6200;fill-opacity:1;stroke-width:0.839506" />
    <path
       d="M 73.828407,25.912866 C 71.225938,23.310397 68.203716,21.295582 64.845691,19.868422 L 79.956803,34.979533 C 78.445691,31.537558 76.430876,28.515335 73.828407,25.912866 Z"
       fill="#000000"
       stroke="#000000"
       id="path2"
       style="fill:#ff6200;fill-opacity:1;stroke-width:0.839506" />
    <path
       d="m 33.364378,66.293113 c 2.602469,2.602469 5.624691,4.617283 8.982716,6.044444 L 27.235983,57.226446 c 1.511111,3.441975 3.525926,6.464197 6.128395,9.066667 z"
       fill="#000000"
       stroke="#000000"
       id="path3"
       style="fill:#ff6200;fill-opacity:1;stroke-width:0.839506" />
    <path
       d="M 70.470382,69.147517 30.509889,29.187024 c -0.419753,0.587655 -0.923457,1.259259 -1.34321,1.930864 l 39.288889,39.288889 c 0.755555,-0.335803 1.42716,-0.755556 2.014814,-1.25926 z"
       fill="#000000"
       stroke="#000000"
       id="path4"
       style="fill:#ff6200;fill-opacity:1;stroke-width:0.839506" />
    <path
       d="m 59.640921,74.016569 -34,-33.999999 c -0.167901,0.923457 -0.335802,1.846913 -0.503703,2.77037 L 56.87055,74.520273 c 0.923457,-0.08395 1.846914,-0.251852 2.770371,-0.503704 z"
       fill="#000000"
       stroke="#000000"
       id="path5"
       style="fill:#ff6200;fill-opacity:1;stroke-width:0.839506" />
    <path
       d="M 77.941987,61.004392 38.653099,21.715503 c -0.671605,0.419753 -1.34321,0.839507 -1.930864,1.34321 l 39.960493,39.960493 c 0.419753,-0.671605 0.839506,-1.343209 1.259259,-2.014814 z"
       fill="#000000"
       stroke="#000000"
       id="path6"
       style="fill:#ff6200;fill-opacity:1;stroke-width:0.839506" />
  </g>
</svg>
